<?xml version="1.0" standalone="no"?><!DOCTYPE svg PUBLIC "-//W3C//DTD SVG 1.1//EN" "http://www.w3.org/Graphics/SVG/1.1/DTD/svg11.dtd"><svg t="1539850798875" class="icon" style="" viewBox="0 0 1024 1024" version="1.1" xmlns="http://www.w3.org/2000/svg" p-id="6923" xmlns:xlink="http://www.w3.org/1999/xlink" width="200" height="200"><defs><style type="text/css"></style></defs><path d="M865.6 157.76a104.672 104.672 0 0 0-147.2 0L213.76 663.04c-2.88 2.88-5.44 6.4-7.04 10.24l-80.32 182.08c-5.12 11.808-2.24 25.92 6.72 35.2 9.28 9.28 23.36 11.84 35.52 6.72l182.08-80.32c3.84-1.6 7.04-3.84 9.92-6.72L865.6 304.96a104.672 104.672 0 0 0 0-147.2zM228.16 836.16l-40.32-40.32 41.92-95.36 93.76 93.44-95.36 42.24z m121.92-60.8l-37.76-37.76-64-64c48.32-48.32 232-232.32 361.28-361.6l64 64 37.792 37.76c-129.312 129.6-312.992 313.28-361.312 361.6z m383.68-384l-69.76-69.76-32-32 27.52-27.52 32 32 69.76 69.76-27.52 27.52z m50.24-49.92l-70.08-70.08-32-32c8-7.68 15.072-14.72 21.472-21.44l32 32L805.12 320c-6.4 6.4-13.44 13.44-21.12 21.44z m58.88-59.2c-2.24 2.24-7.328 7.68-15.04 15.04l-69.76-69.76-32-32c7.328-7.68 12.48-12.8 15.04-15.04 28.16-28.16 73.6-28.16 101.76 0 5.44 5.44 9.952 11.84 13.12 18.56h0.32l0.96 1.92c0.64 1.92 1.6 3.84 2.24 5.76 0.928 2.24 1.6 4.8 2.208 7.36a2.24 2.24 0 0 1 0.352 1.28c0.64 2.56 1.28 5.12 1.28 7.68 0.32 2.56 0.64 5.44 0.64 8.32 0 18.24-7.04 36.8-21.12 50.88z" fill="#2D2220" p-id="6924"></path><path d="M323.52 793.92l-95.36 42.24-8.32-8.32 41.92-95.36z" fill="#FF6B43" p-id="6925"></path><path d="M323.52 793.92l-95.36 42.24-8.32-8.32 41.92-95.36zM842.88 282.24c-2.24 2.24-7.328 7.68-15.04 15.04l-69.76-69.76c7.328-7.68 12.48-12.8 15.04-15.04 22.72-22.72 56.32-27.2 83.2-13.44 13.76 26.88 9.28 60.48-13.44 83.2z" fill="#FF8366" p-id="6926"></path><path d="M805.12 320c-6.4 6.4-13.44 13.44-21.12 21.44l-70.08-70.08c8-7.68 15.072-14.72 21.472-21.44L805.12 320zM761.28 363.84l-27.52 27.52-69.76-69.76 27.52-27.52 69.76 69.76z" fill="#BCBCBC" p-id="6927"></path><path d="M711.36 413.76c-129.28 129.6-312.96 313.28-361.312 361.6L312.32 737.6c48.32-48.32 232-232.32 361.28-361.6l37.76 37.76z" fill="#FFD561" p-id="6928"></path></svg>